<svg id="Capa_1" enable-background="new 0 0 512 512" height="512" viewBox="0 0 512 512" width="512" xmlns="http://www.w3.org/2000/svg"><path d="m165 0c-90.98 0-165 74.02-165 165 0 37.31 12.94 73.46 36.63 102.88l-30.81 62.12h159.18c90.98 0 165-74.02 165-165s-74.02-165-165-165zm-45 180h-30v-30h30zm60 0h-30v-30h30zm60 0h-30v-30h30z"/><path d="m512 347c0-86.87-67.48-158.27-152.77-164.55-8.35 93.63-83.15 168.43-176.78 176.78 6.28 85.29 77.68 152.77 164.55 152.77h159.18l-30.81-62.12c23.69-29.42 36.63-65.57 36.63-102.88zm-210 15h-30v-30h30zm60 0h-30v-30h30zm60 0h-30v-30h30z"/></svg>