<svg height="512" viewBox="0 0 64 64" width="512" xmlns="http://www.w3.org/2000/svg"><g id="shirt_&#xB7;_ecommerce_&#xB7;_shopping_&#xB7;_mobilephone_&#xB7;_online" data-name="shirt &#xB7; ecommerce &#xB7; shopping  &#xB7; mobilephone &#xB7; online"><path d="m13.62 14h36.76l-2-4h-32.76z"/><path d="m40 22a3.009 3.009 0 0 0 3-3v-3h-6v3a3.009 3.009 0 0 0 3 3z"/><path d="m19 19v-3h-6v3a3 3 0 0 0 6 0z"/><path d="m16 8h32v-1a3.009 3.009 0 0 0 -3-3h-26a3.009 3.009 0 0 0 -3 3zm18-3h2a1 1 0 0 1 0 2h-2a1 1 0 0 1 0-2zm-6 0h2a1 1 0 0 1 0 2h-2a1 1 0 0 1 0-2z"/><path d="m32 22a3.009 3.009 0 0 0 3-3v-3h-6v3a3.009 3.009 0 0 0 3 3z"/><path d="m48 54-32 .04v2.96a3.009 3.009 0 0 0 3 3h26a3.009 3.009 0 0 0 3-3zm-14 4h-5a1 1 0 0 1 0-2h5a1 1 0 0 1 0 2z"/><path d="m48 24a4.994 4.994 0 0 1 -4-2.03 4.956 4.956 0 0 1 -8 0 4.956 4.956 0 0 1 -8 0 4.956 4.956 0 0 1 -8 0 4.994 4.994 0 0 1 -4 2.03v28.04l32-.04zm-6 12a1 1 0 0 1 -1.243.97l-2.757-.689v8.719a1 1 0 0 1 -1 1h-10a1 1 0 0 1 -1-1v-8.719l-2.757.689a1 1 0 0 1 -1.243-.97v-4a1 1 0 0 1 .756-.97l3.975-1a1.006 1.006 0 0 1 .244-.03h2.025a1 1 0 0 1 1 1 2 2 0 0 0 4 0 1 1 0 0 1 1-1h2.018a.992.992 0 0 1 .243.03l3.983 1a1 1 0 0 1 .756.97z"/><path d="m51 19v-3h-6v3a3 3 0 0 0 6 0z"/><path d="m24 22a3.009 3.009 0 0 0 3-3v-3h-6v3a3.009 3.009 0 0 0 3 3z"/><path d="m35.874 32a4 4 0 0 1 -7.748 0h-1.026l-3.1.78v1.939l2.757-.689a1 1 0 0 1 1.243.97v9h8v-9a1 1 0 0 1 1.243-.97l2.757.689v-1.939l-3.106-.78z"/></g></svg>