<svg id="Capa_1" enable-background="new 0 0 512 512" height="512" viewBox="0 0 512 512" width="512" xmlns="http://www.w3.org/2000/svg" xmlns:xlink="http://www.w3.org/1999/xlink"><linearGradient id="SVGID_1_" gradientUnits="userSpaceOnUse" x1="256" x2="256" y1="512" y2="0"><stop offset="0" stop-color="#c3ffe8"/><stop offset=".9973" stop-color="#f0fff4"/></linearGradient><linearGradient id="SVGID_2_" gradientUnits="userSpaceOnUse" x1="107.604" x2="393.991" y1="404.4" y2="118.013"><stop offset="0" stop-color="#9cffac"/><stop offset="1" stop-color="#00b59c"/></linearGradient><g><g><circle cx="256" cy="256" fill="url(#SVGID_1_)" r="256"/></g><g><g><path d="m324.908 174.532-25.12-25.12-138.181 138.18 25.119 25.121zm-182.141 131.9c-.971.971-1.717 2.16-2.151 3.47l-24.457 73.379-8.557 8.557c-3.47 3.47-3.47 9.09 0 12.56 1.735 1.735 4.008 2.602 6.28 2.602 2.273 0 4.545-.867 6.28-2.602l8.553-8.553 73.383-24.461c1.301-.434 2.498-1.171 3.47-2.142l6.281-6.281-62.803-62.808zm56.519 18.842 25.124 25.125 138.18-138.185-25.122-25.122zm194.703-207.263c-17.314-17.314-45.487-17.314-62.801 0l-18.84 18.84 62.801 62.801 18.84-18.84c8.396-8.379 13.011-19.534 13.011-31.401s-4.615-23.02-13.011-31.4z" fill="url(#SVGID_2_)"/></g></g></g></svg>